<svg width="85" height="83" viewBox="0 0 85 83" fill="none" xmlns="http://www.w3.org/2000/svg">
<rect x="0.5" y="9.06763" width="72.2759" height="73.4324" rx="9.5" fill="#394B59" stroke="#394B59"/>
<path d="M83.9397 17.1486C83.9397 26.3415 76.4559 33.7973 67.2198 33.7973C57.9838 33.7973 50.5 26.3415 50.5 17.1486C50.5 7.9558 57.9838 0.5 67.2198 0.5C76.4559 0.5 83.9397 7.9558 83.9397 17.1486Z" fill="#394B59" stroke="#293742"/>
<path fill-rule="evenodd" clip-rule="evenodd" d="M68.3682 26.2947L68.3682 13.0491L72.1485 16.8138C72.5974 17.2608 73.3229 17.2608 73.7718 16.8138C74.2206 16.3668 74.2206 15.6442 73.7718 15.1972L68.0318 9.48101C67.5829 9.034 66.8574 9.034 66.4086 9.48101L60.6686 15.1972C60.4448 15.4202 60.3323 15.7128 60.3323 16.0055C60.3323 16.2982 60.4448 16.5908 60.6686 16.8138C61.1175 17.2608 61.843 17.2608 62.2919 16.8138L66.0722 13.0491L66.0722 26.2947C66.0722 26.9269 66.5865 27.4379 67.2202 27.4379C67.8539 27.4379 68.3682 26.9269 68.3682 26.2947Z" fill="#293742"/>
<mask id="mask0_58_817" style="mask-type:alpha" maskUnits="userSpaceOnUse" x="60" y="9" width="15" height="19">
<path fill-rule="evenodd" clip-rule="evenodd" d="M68.3682 26.2947L68.3682 13.0491L72.1485 16.8138C72.5974 17.2608 73.3229 17.2608 73.7718 16.8138C74.2206 16.3668 74.2206 15.6442 73.7718 15.1972L68.0318 9.48101C67.5829 9.034 66.8574 9.034 66.4086 9.48101L60.6686 15.1972C60.4448 15.4202 60.3323 15.7128 60.3323 16.0055C60.3323 16.2982 60.4448 16.5908 60.6686 16.8138C61.1175 17.2608 61.843 17.2608 62.2919 16.8138L66.0722 13.0491L66.0722 26.2947C66.0722 26.9269 66.5865 27.4379 67.2202 27.4379C67.8539 27.4379 68.3682 26.9269 68.3682 26.2947Z" fill="white"/>
</mask>
<g mask="url(#mask0_58_817)">
</g>
<path d="M21.6161 53.8109C20.4437 55.2703 9.15918 70.5946 9.15918 70.5946H62.2842C65.2152 70.5946 64.8488 69.8649 64.4825 68.7703C64.1161 67.6757 47.9954 39.946 46.8962 39.2163C45.7971 38.4865 38.1031 51.9865 36.6376 54.1757C35.1721 56.3649 32.9738 56.3649 30.0428 54.1757C26.379 50.1622 23.0816 51.9865 21.6161 53.8109Z" fill="#293742"/>
<ellipse cx="21.2498" cy="28.9999" rx="10.2586" ry="10.2162" fill="#293742"/>
</svg>
